<svg width="48" height="48" viewBox="0 0 48 48" fill="none" xmlns="http://www.w3.org/2000/svg"><g clip-path="url(#clip0_677_10598)"><circle cx="24" cy="24" r="24" fill="#D7DBE5"/><path d="M24.4801 12.3599C19.125 12.3599 14.7838 16.6656 14.7838 21.977C14.7838 27.2884 19.125 31.5941 24.4801 31.5941C29.8352 31.5941 34.1764 27.2884 34.1764 21.977C34.1764 16.6656 29.8352 12.3599 24.4801 12.3599Z" fill="#fff"/><path d="M30.2022 35.8727C26.4114 35.2727 22.5487 35.2727 18.758 35.8727L18.3516 35.937C13.0103 36.7825 9.08008 41.3521 9.08008 46.7169C9.08008 49.6125 11.4468 51.9599 14.3662 51.9599H34.594C37.5134 51.9599 39.8801 49.6125 39.8801 46.7169C39.8801 41.3521 35.9498 36.7825 30.6085 35.937L30.2022 35.8727Z" fill="#fff"/></g><defs><clipPath id="clip0_677_10598"><rect width="48" height="48" rx="24" fill="#fff"/></clipPath></defs></svg>