<svg width="611" height="134" viewBox="0 0 611 134" fill="none" xmlns="http://www.w3.org/2000/svg"><path d="M176.854 66.7539H155.307V10.7539H176.635C182.395 10.7539 187.372 11.875 191.564 14.1172C195.775 16.3411 199.02 19.5495 201.299 23.7422C203.596 27.9167 204.744 32.9206 204.744 38.7539C204.744 44.5872 203.605 49.6003 201.326 53.793C199.048 57.9674 195.821 61.1758 191.646 63.418C187.472 65.6419 182.541 66.7539 176.854 66.7539ZM170.51 53.8477H176.307C179.077 53.8477 181.438 53.401 183.389 52.5078C185.357 51.6146 186.852 50.0742 187.873 47.8867C188.912 45.6992 189.432 42.6549 189.432 38.7539C189.432 34.8529 188.903 31.8086 187.846 29.6211C186.807 27.4336 185.275 25.8932 183.252 25C181.247 24.1068 178.786 23.6602 175.869 23.6602H170.51V53.8477ZM211.778 66.7539V10.7539H235.95C240.106 10.7539 243.743 11.5104 246.86 13.0234C249.978 14.5365 252.402 16.7148 254.134 19.5586C255.866 22.4023 256.731 25.8112 256.731 29.7852C256.731 33.7956 255.838 37.1771 254.052 39.9297C252.284 42.6823 249.795 44.7604 246.587 46.1641C243.397 47.5677 239.669 48.2695 235.403 48.2695H220.966V36.457H232.341C234.127 36.457 235.649 36.2383 236.907 35.8008C238.183 35.3451 239.159 34.625 239.833 33.6406C240.526 32.6562 240.872 31.3711 240.872 29.7852C240.872 28.181 240.526 26.8776 239.833 25.875C239.159 24.8542 238.183 24.1068 236.907 23.6328C235.649 23.1406 234.127 22.8945 232.341 22.8945H226.981V66.7539H211.778ZM244.591 41.0508L258.591 66.7539H242.075L228.403 41.0508H244.591ZM317.462 38.7539C317.462 44.9883 316.25 50.2474 313.825 54.5312C311.401 58.7969 308.129 62.0326 304.009 64.2383C299.889 66.4258 295.295 67.5195 290.228 67.5195C285.123 67.5195 280.511 66.4167 276.392 64.2109C272.29 61.987 269.027 58.7422 266.603 54.4766C264.196 50.1927 262.993 44.9518 262.993 38.7539C262.993 32.5195 264.196 27.2695 266.603 23.0039C269.027 18.7201 272.29 15.4844 276.392 13.2969C280.511 11.0911 285.123 9.98828 290.228 9.98828C295.295 9.98828 299.889 11.0911 304.009 13.2969C308.129 15.4844 311.401 18.7201 313.825 23.0039C316.25 27.2695 317.462 32.5195 317.462 38.7539ZM301.821 38.7539C301.821 35.3997 301.375 32.5742 300.481 30.2773C299.606 27.9622 298.303 26.2122 296.571 25.0273C294.858 23.8242 292.743 23.2227 290.228 23.2227C287.712 23.2227 285.588 23.8242 283.856 25.0273C282.143 26.2122 280.84 27.9622 279.946 30.2773C279.071 32.5742 278.634 35.3997 278.634 38.7539C278.634 42.1081 279.071 44.9427 279.946 47.2578C280.84 49.5547 282.143 51.3047 283.856 52.5078C285.588 53.6927 287.712 54.2852 290.228 54.2852C292.743 54.2852 294.858 53.6927 296.571 52.5078C298.303 51.3047 299.606 49.5547 300.481 47.2578C301.375 44.9427 301.821 42.1081 301.821 38.7539ZM324.496 66.7539V10.7539H348.668C352.824 10.7539 356.461 11.5742 359.578 13.2148C362.695 14.8555 365.12 17.1615 366.852 20.1328C368.583 23.1042 369.449 26.5768 369.449 30.5508C369.449 34.5612 368.556 38.0339 366.77 40.9688C365.001 43.9036 362.513 46.1641 359.305 47.75C356.115 49.3359 352.387 50.1289 348.121 50.1289H333.684V38.3164H345.059C346.845 38.3164 348.367 38.0065 349.625 37.3867C350.901 36.7487 351.876 35.8464 352.551 34.6797C353.243 33.513 353.59 32.1367 353.59 30.5508C353.59 28.9466 353.243 27.5794 352.551 26.4492C351.876 25.3008 350.901 24.4258 349.625 23.8242C348.367 23.2044 346.845 22.8945 345.059 22.8945H339.699V66.7539H324.496ZM390.367 66.7539V10.7539H405.57V54.5039H428.211V66.7539H390.367ZM486.426 38.7539C486.426 44.9883 485.214 50.2474 482.789 54.5312C480.365 58.7969 477.092 62.0326 472.973 64.2383C468.853 66.4258 464.259 67.5195 459.191 67.5195C454.087 67.5195 449.475 66.4167 445.355 64.2109C441.254 61.987 437.991 58.7422 435.566 54.4766C433.16 50.1927 431.957 44.9518 431.957 38.7539C431.957 32.5195 433.16 27.2695 435.566 23.0039C437.991 18.7201 441.254 15.4844 445.355 13.2969C449.475 11.0911 454.087 9.98828 459.191 9.98828C464.259 9.98828 468.853 11.0911 472.973 13.2969C477.092 15.4844 480.365 18.7201 482.789 23.0039C485.214 27.2695 486.426 32.5195 486.426 38.7539ZM470.785 38.7539C470.785 35.3997 470.339 32.5742 469.445 30.2773C468.57 27.9622 467.267 26.2122 465.535 25.0273C463.822 23.8242 461.707 23.2227 459.191 23.2227C456.676 23.2227 454.552 23.8242 452.82 25.0273C451.107 26.2122 449.803 27.9622 448.91 30.2773C448.035 32.5742 447.598 35.3997 447.598 38.7539C447.598 42.1081 448.035 44.9427 448.91 47.2578C449.803 49.5547 451.107 51.3047 452.82 52.5078C454.552 53.6927 456.676 54.2852 459.191 54.2852C461.707 54.2852 463.822 53.6927 465.535 52.5078C467.267 51.3047 468.57 49.5547 469.445 47.2578C470.339 44.9427 470.785 42.1081 470.785 38.7539ZM529.827 29.2383C529.59 28.2721 529.216 27.4245 528.706 26.6953C528.196 25.9479 527.558 25.319 526.792 24.8086C526.045 24.2799 525.17 23.888 524.167 23.6328C523.183 23.3594 522.098 23.2227 520.913 23.2227C518.361 23.2227 516.183 23.8333 514.378 25.0547C512.591 26.276 511.224 28.0352 510.276 30.332C509.347 32.6289 508.882 35.3997 508.882 38.6445C508.882 41.9258 509.328 44.7331 510.222 47.0664C511.115 49.3997 512.446 51.1862 514.214 52.4258C515.982 53.6654 518.179 54.2852 520.804 54.2852C523.119 54.2852 525.042 53.9479 526.573 53.2734C528.123 52.599 529.28 51.6419 530.046 50.4023C530.812 49.1628 531.194 47.7044 531.194 46.0273L533.819 46.3008H521.022V35.4727H545.851V43.2383C545.851 48.3424 544.766 52.7083 542.597 56.3359C540.446 59.9453 537.474 62.7161 533.683 64.6484C529.909 66.5625 525.58 67.5195 520.694 67.5195C515.244 67.5195 510.459 66.362 506.339 64.0469C502.219 61.7318 499.002 58.4323 496.687 54.1484C494.39 49.8646 493.241 44.7695 493.241 38.8633C493.241 34.2331 493.943 30.1315 495.347 26.5586C496.769 22.9857 498.737 19.9687 501.253 17.5078C503.769 15.0286 506.676 13.1602 509.976 11.9023C513.275 10.6263 516.812 9.98828 520.585 9.98828C523.903 9.98828 526.983 10.4622 529.827 11.4102C532.689 12.3398 535.214 13.6706 537.401 15.4023C539.607 17.1159 541.384 19.1484 542.733 21.5C544.082 23.8516 544.903 26.431 545.194 29.2383H529.827ZM607.189 38.7539C607.189 44.9883 605.977 50.2474 603.553 54.5312C601.128 58.7969 597.856 62.0326 593.736 64.2383C589.617 66.4258 585.023 67.5195 579.955 67.5195C574.851 67.5195 570.239 66.4167 566.119 64.2109C562.018 61.987 558.755 58.7422 556.33 54.4766C553.924 50.1927 552.721 44.9518 552.721 38.7539C552.721 32.5195 553.924 27.2695 556.33 23.0039C558.755 18.7201 562.018 15.4844 566.119 13.2969C570.239 11.0911 574.851 9.98828 579.955 9.98828C585.023 9.98828 589.617 11.0911 593.736 13.2969C597.856 15.4844 601.128 18.7201 603.553 23.0039C605.977 27.2695 607.189 32.5195 607.189 38.7539ZM591.549 38.7539C591.549 35.3997 591.102 32.5742 590.209 30.2773C589.334 27.9622 588.031 26.2122 586.299 25.0273C584.585 23.8242 582.471 23.2227 579.955 23.2227C577.439 23.2227 575.316 23.8242 573.584 25.0273C571.87 26.2122 570.567 27.9622 569.674 30.2773C568.799 32.5742 568.361 35.3997 568.361 38.7539C568.361 42.1081 568.799 44.9427 569.674 47.2578C570.567 49.5547 571.87 51.3047 573.584 52.5078C575.316 53.6927 577.439 54.2852 579.955 54.2852C582.471 54.2852 584.585 53.6927 586.299 52.5078C588.031 51.3047 589.334 49.5547 590.209 47.2578C591.102 44.9427 591.549 42.1081 591.549 38.7539Z" fill="#000"/><path d="M152.771 88.0493H157.007L165.479 102.308H165.836L174.308 88.0493H178.544L167.507 106.007V118.595H163.808V106.007L152.771 88.0493ZM188.917 119.072C186.849 119.072 185.034 118.58 183.473 117.595C181.922 116.611 180.709 115.234 179.834 113.464C178.969 111.694 178.536 109.626 178.536 107.259C178.536 104.873 178.969 102.79 179.834 101.01C180.709 99.2304 181.922 97.8483 183.473 96.8639C185.034 95.8795 186.849 95.3873 188.917 95.3873C190.985 95.3873 192.795 95.8795 194.346 96.8639C195.907 97.8483 197.12 99.2304 197.985 101.01C198.86 102.79 199.298 104.873 199.298 107.259C199.298 109.626 198.86 111.694 197.985 113.464C197.12 115.234 195.907 116.611 194.346 117.595C192.795 118.58 190.985 119.072 188.917 119.072ZM188.917 115.91C190.488 115.91 191.781 115.507 192.795 114.702C193.809 113.897 194.56 112.838 195.047 111.525C195.534 110.213 195.778 108.791 195.778 107.259C195.778 105.728 195.534 104.301 195.047 102.979C194.56 101.657 193.809 100.588 192.795 99.7723C191.781 98.9569 190.488 98.5493 188.917 98.5493C187.346 98.5493 186.053 98.9569 185.039 99.7723C184.025 100.588 183.274 101.657 182.787 102.979C182.3 104.301 182.056 105.728 182.056 107.259C182.056 108.791 182.3 110.213 182.787 111.525C183.274 112.838 184.025 113.897 185.039 114.702C186.053 115.507 187.346 115.91 188.917 115.91ZM219.108 109.228V95.6856H222.628V118.595H219.108V114.717H218.87C218.333 115.88 217.498 116.87 216.364 117.685C215.23 118.49 213.799 118.893 212.069 118.893C210.637 118.893 209.364 118.58 208.25 117.953C207.137 117.317 206.262 116.362 205.625 115.09C204.989 113.807 204.671 112.191 204.671 110.242V95.6856H208.191V110.004C208.191 111.674 208.658 113.007 209.593 114.001C210.537 114.995 211.74 115.492 213.202 115.492C214.077 115.492 214.967 115.269 215.872 114.821C216.787 114.374 217.552 113.688 218.169 112.763C218.795 111.838 219.108 110.66 219.108 109.228ZM229.075 118.595V95.6856H232.476V99.1459H232.714C233.132 98.0123 233.888 97.0926 234.981 96.3866C236.075 95.6807 237.308 95.3277 238.68 95.3277C238.939 95.3277 239.262 95.3327 239.65 95.3426C240.037 95.3525 240.331 95.3675 240.53 95.3873V98.9669C240.41 98.9371 240.137 98.8923 239.709 98.8327C239.292 98.763 238.849 98.7282 238.382 98.7282C237.268 98.7282 236.274 98.9619 235.399 99.4292C234.534 99.8866 233.848 100.523 233.341 101.338C232.844 102.144 232.595 103.063 232.595 104.098V118.595H229.075ZM272.742 100.816L269.58 101.711C269.381 101.184 269.088 100.672 268.7 100.175C268.322 99.6679 267.805 99.2503 267.149 98.9221C266.493 98.594 265.652 98.43 264.628 98.43C263.226 98.43 262.058 98.7531 261.123 99.3994C260.199 100.036 259.736 100.846 259.736 101.831C259.736 102.706 260.054 103.397 260.691 103.904C261.327 104.411 262.321 104.833 263.674 105.171L267.074 106.007C269.123 106.504 270.649 107.264 271.653 108.289C272.657 109.303 273.159 110.61 273.159 112.211C273.159 113.524 272.782 114.697 272.026 115.731C271.28 116.765 270.236 117.581 268.894 118.177C267.551 118.774 265.99 119.072 264.211 119.072C261.874 119.072 259.94 118.565 258.409 117.551C256.877 116.536 255.908 115.055 255.5 113.106L258.841 112.271C259.159 113.504 259.761 114.429 260.646 115.045C261.541 115.661 262.709 115.97 264.151 115.97C265.792 115.97 267.094 115.622 268.059 114.926C269.033 114.22 269.52 113.375 269.52 112.39C269.52 111.595 269.242 110.929 268.685 110.392C268.128 109.845 267.273 109.437 266.12 109.169L262.301 108.274C260.203 107.777 258.662 107.006 257.678 105.962C256.703 104.908 256.216 103.59 256.216 102.009C256.216 100.717 256.579 99.5734 257.305 98.5791C258.041 97.5848 259.04 96.8042 260.303 96.2375C261.576 95.6707 263.017 95.3873 264.628 95.3873C266.895 95.3873 268.675 95.8845 269.968 96.8788C271.27 97.8731 272.195 99.1856 272.742 100.816ZM278.458 118.595V95.6856H281.978V118.595H278.458ZM280.248 91.8675C279.562 91.8675 278.97 91.6338 278.473 91.1665C277.986 90.6991 277.742 90.1373 277.742 89.4811C277.742 88.8248 277.986 88.2631 278.473 87.7957C278.97 87.3284 279.562 87.0947 280.248 87.0947C280.934 87.0947 281.52 87.3284 282.008 87.7957C282.505 88.2631 282.753 88.8248 282.753 89.4811C282.753 90.1373 282.505 90.6991 282.008 91.1665C281.52 91.6338 280.934 91.8675 280.248 91.8675ZM298.388 95.6856V98.6686H286.516V95.6856H298.388ZM289.976 90.197H293.496V112.032C293.496 113.027 293.64 113.772 293.928 114.269C294.227 114.757 294.604 115.085 295.062 115.254C295.529 115.413 296.021 115.492 296.538 115.492C296.926 115.492 297.244 115.473 297.493 115.433C297.741 115.383 297.94 115.343 298.089 115.313L298.805 118.475C298.567 118.565 298.234 118.654 297.806 118.744C297.379 118.843 296.837 118.893 296.18 118.893C295.186 118.893 294.212 118.679 293.257 118.252C292.313 117.824 291.527 117.173 290.901 116.298C290.284 115.423 289.976 114.319 289.976 112.987V90.197ZM313.042 119.072C310.834 119.072 308.93 118.585 307.329 117.61C305.738 116.626 304.51 115.254 303.645 113.494C302.79 111.724 302.363 109.666 302.363 107.319C302.363 104.973 302.79 102.904 303.645 101.115C304.51 99.3149 305.713 97.9129 307.255 96.9086C308.806 95.8944 310.615 95.3873 312.684 95.3873C313.877 95.3873 315.055 95.5862 316.218 95.9839C317.382 96.3817 318.441 97.028 319.395 97.9229C320.35 98.8078 321.11 99.9811 321.677 101.443C322.244 102.904 322.527 104.704 322.527 106.842V108.333H304.868V105.291H318.948C318.948 103.998 318.689 102.845 318.172 101.831C317.665 100.816 316.939 100.016 315.995 99.4292C315.06 98.8426 313.956 98.5493 312.684 98.5493C311.282 98.5493 310.069 98.8973 309.044 99.5933C308.03 100.279 307.25 101.174 306.703 102.278C306.156 103.382 305.882 104.565 305.882 105.828V107.856C305.882 109.586 306.181 111.053 306.777 112.256C307.384 113.449 308.224 114.359 309.298 114.985C310.372 115.602 311.62 115.91 313.042 115.91C313.966 115.91 314.801 115.781 315.547 115.522C316.303 115.254 316.954 114.856 317.501 114.329C318.048 113.792 318.471 113.126 318.769 112.331L322.169 113.285C321.811 114.438 321.21 115.453 320.365 116.328C319.52 117.193 318.475 117.869 317.233 118.356C315.99 118.833 314.593 119.072 313.042 119.072ZM348.345 119.072C346.436 119.072 344.75 118.59 343.289 117.625C341.827 116.651 340.684 115.279 339.858 113.509C339.033 111.729 338.62 109.626 338.62 107.2C338.62 104.794 339.033 102.706 339.858 100.936C340.684 99.1657 341.832 97.7986 343.304 96.8341C344.775 95.8696 346.475 95.3873 348.404 95.3873C349.896 95.3873 351.074 95.6359 351.939 96.1331C352.814 96.6203 353.48 97.1771 353.938 97.8035C354.405 98.42 354.768 98.9271 355.027 99.3248H355.325V88.0493H358.845V118.595H355.444V115.075H355.027C354.768 115.492 354.4 116.019 353.923 116.656C353.446 117.282 352.765 117.844 351.88 118.341C350.995 118.828 349.816 119.072 348.345 119.072ZM348.822 115.91C350.234 115.91 351.427 115.542 352.402 114.806C353.376 114.061 354.117 113.032 354.624 111.719C355.131 110.397 355.385 108.87 355.385 107.14C355.385 105.43 355.136 103.934 354.639 102.651C354.142 101.358 353.406 100.354 352.431 99.6381C351.457 98.9122 350.254 98.5493 348.822 98.5493C347.331 98.5493 346.088 98.9321 345.093 99.6977C344.109 100.453 343.368 101.483 342.871 102.785C342.384 104.078 342.14 105.529 342.14 107.14C342.14 108.771 342.389 110.252 342.886 111.585C343.393 112.907 344.139 113.961 345.123 114.747C346.118 115.522 347.35 115.91 348.822 115.91ZM375.385 119.072C373.178 119.072 371.274 118.585 369.673 117.61C368.082 116.626 366.854 115.254 365.989 113.494C365.134 111.724 364.706 109.666 364.706 107.319C364.706 104.973 365.134 102.904 365.989 101.115C366.854 99.3149 368.057 97.9129 369.598 96.9086C371.15 95.8944 372.959 95.3873 375.027 95.3873C376.221 95.3873 377.399 95.5862 378.562 95.9839C379.725 96.3817 380.784 97.028 381.739 97.9229C382.694 98.8078 383.454 99.9811 384.021 101.443C384.588 102.904 384.871 104.704 384.871 106.842V108.333H367.212V105.291H381.292C381.292 103.998 381.033 102.845 380.516 101.831C380.009 100.816 379.283 100.016 378.338 99.4292C377.404 98.8426 376.3 98.5493 375.027 98.5493C373.625 98.5493 372.412 98.8973 371.388 99.5933C370.374 100.279 369.593 101.174 369.047 102.278C368.5 103.382 368.226 104.565 368.226 105.828V107.856C368.226 109.586 368.525 111.053 369.121 112.256C369.728 113.449 370.568 114.359 371.642 114.985C372.716 115.602 373.963 115.91 375.385 115.91C376.31 115.91 377.145 115.781 377.891 115.522C378.647 115.254 379.298 114.856 379.845 114.329C380.392 113.792 380.814 113.126 381.113 112.331L384.513 113.285C384.155 114.438 383.554 115.453 382.708 116.328C381.863 117.193 380.819 117.869 379.576 118.356C378.333 118.833 376.936 119.072 375.385 119.072ZM406.453 100.816L403.291 101.711C403.092 101.184 402.799 100.672 402.411 100.175C402.033 99.6679 401.516 99.2503 400.86 98.9221C400.203 98.594 399.363 98.43 398.339 98.43C396.937 98.43 395.769 98.7531 394.834 99.3994C393.909 100.036 393.447 100.846 393.447 101.831C393.447 102.706 393.765 103.397 394.402 103.904C395.038 104.411 396.032 104.833 397.385 105.171L400.785 106.007C402.833 106.504 404.36 107.264 405.364 108.289C406.368 109.303 406.87 110.61 406.87 112.211C406.87 113.524 406.493 114.697 405.737 115.731C404.991 116.765 403.947 117.581 402.605 118.177C401.262 118.774 399.701 119.072 397.922 119.072C395.585 119.072 393.651 118.565 392.12 117.551C390.588 116.536 389.619 115.055 389.211 113.106L392.552 112.271C392.87 113.504 393.472 114.429 394.357 115.045C395.252 115.661 396.42 115.97 397.862 115.97C399.502 115.97 400.805 115.622 401.77 114.926C402.744 114.22 403.231 113.375 403.231 112.39C403.231 111.595 402.953 110.929 402.396 110.392C401.839 109.845 400.984 109.437 399.831 109.169L396.012 108.274C393.914 107.777 392.373 107.006 391.389 105.962C390.414 104.908 389.927 103.59 389.927 102.009C389.927 100.717 390.29 99.5734 391.016 98.5791C391.752 97.5848 392.751 96.8042 394.014 96.2375C395.287 95.6707 396.728 95.3873 398.339 95.3873C400.606 95.3873 402.386 95.8845 403.679 96.8788C404.981 97.8731 405.906 99.1856 406.453 100.816ZM421.476 119.072C419.328 119.072 417.479 118.565 415.927 117.551C414.376 116.536 413.183 115.139 412.348 113.36C411.513 111.58 411.095 109.546 411.095 107.259C411.095 104.933 411.523 102.88 412.378 101.1C413.243 99.3099 414.446 97.9129 415.987 96.9086C417.538 95.8944 419.348 95.3873 421.416 95.3873C423.027 95.3873 424.479 95.6856 425.771 96.2822C427.064 96.8788 428.123 97.714 428.948 98.7879C429.773 99.8618 430.285 101.115 430.484 102.546H426.964C426.696 101.502 426.099 100.578 425.175 99.7723C424.26 98.9569 423.027 98.5493 421.476 98.5493C420.104 98.5493 418.9 98.9072 417.866 99.6231C416.842 100.329 416.042 101.328 415.465 102.621C414.898 103.904 414.615 105.41 414.615 107.14C414.615 108.91 414.893 110.451 415.45 111.764C416.017 113.076 416.812 114.095 417.836 114.821C418.871 115.547 420.084 115.91 421.476 115.91C422.39 115.91 423.221 115.751 423.966 115.433C424.712 115.115 425.344 114.657 425.861 114.061C426.378 113.464 426.746 112.748 426.964 111.913H430.484C430.285 113.265 429.793 114.483 429.008 115.567C428.232 116.641 427.203 117.496 425.92 118.132C424.648 118.759 423.166 119.072 421.476 119.072ZM435.63 118.595V95.6856H439.03V99.1459H439.269C439.687 98.0123 440.442 97.0926 441.536 96.3866C442.63 95.6807 443.863 95.3277 445.235 95.3277C445.493 95.3277 445.817 95.3327 446.204 95.3426C446.592 95.3525 446.885 95.3675 447.084 95.3873V98.9669C446.965 98.9371 446.692 98.8923 446.264 98.8327C445.846 98.763 445.404 98.7282 444.937 98.7282C443.823 98.7282 442.829 98.9619 441.954 99.4292C441.089 99.8866 440.403 100.523 439.895 101.338C439.398 102.144 439.15 103.063 439.15 104.098V118.595H435.63ZM451.257 118.595V95.6856H454.777V118.595H451.257ZM453.047 91.8675C452.36 91.8675 451.769 91.6338 451.272 91.1665C450.784 90.6991 450.541 90.1373 450.541 89.4811C450.541 88.8248 450.784 88.2631 451.272 87.7957C451.769 87.3284 452.36 87.0947 453.047 87.0947C453.733 87.0947 454.319 87.3284 454.806 87.7957C455.304 88.2631 455.552 88.8248 455.552 89.4811C455.552 90.1373 455.304 90.6991 454.806 91.1665C454.319 91.6338 453.733 91.8675 453.047 91.8675ZM461.224 127.186V95.6856H464.624V99.3248H465.042C465.3 98.9271 465.658 98.42 466.116 97.8035C466.583 97.1771 467.249 96.6203 468.114 96.1331C468.989 95.6359 470.172 95.3873 471.664 95.3873C473.593 95.3873 475.293 95.8696 476.765 96.8341C478.236 97.7986 479.385 99.1657 480.21 100.936C481.035 102.706 481.448 104.794 481.448 107.2C481.448 109.626 481.035 111.729 480.21 113.509C479.385 115.279 478.241 116.651 476.78 117.625C475.318 118.59 473.633 119.072 471.724 119.072C470.252 119.072 469.074 118.828 468.189 118.341C467.304 117.844 466.623 117.282 466.145 116.656C465.668 116.019 465.3 115.492 465.042 115.075H464.743V127.186H461.224ZM464.684 107.14C464.684 108.87 464.937 110.397 465.444 111.719C465.952 113.032 466.692 114.061 467.667 114.806C468.641 115.542 469.834 115.91 471.246 115.91C472.718 115.91 473.946 115.522 474.93 114.747C475.925 113.961 476.67 112.907 477.167 111.585C477.675 110.252 477.928 108.771 477.928 107.14C477.928 105.529 477.68 104.078 477.182 102.785C476.695 101.483 475.954 100.453 474.96 99.6977C473.976 98.9321 472.738 98.5493 471.246 98.5493C469.814 98.5493 468.611 98.9122 467.637 99.6381C466.662 100.354 465.927 101.358 465.43 102.651C464.932 103.934 464.684 105.43 464.684 107.14ZM496.78 95.6856V98.6686H484.908V95.6856H496.78ZM488.368 90.197H491.888V112.032C491.888 113.027 492.032 113.772 492.321 114.269C492.619 114.757 492.997 115.085 493.454 115.254C493.922 115.413 494.414 115.492 494.931 115.492C495.319 115.492 495.637 115.473 495.885 115.433C496.134 115.383 496.333 115.343 496.482 115.313L497.198 118.475C496.959 118.565 496.626 118.654 496.199 118.744C495.771 118.843 495.229 118.893 494.573 118.893C493.579 118.893 492.604 118.679 491.65 118.252C490.705 117.824 489.92 117.173 489.293 116.298C488.677 115.423 488.368 114.319 488.368 112.987V90.197ZM502.075 118.595V95.6856H505.595V118.595H502.075ZM503.865 91.8675C503.179 91.8675 502.587 91.6338 502.09 91.1665C501.603 90.6991 501.359 90.1373 501.359 89.4811C501.359 88.8248 501.603 88.2631 502.09 87.7957C502.587 87.3284 503.179 87.0947 503.865 87.0947C504.551 87.0947 505.138 87.3284 505.625 87.7957C506.122 88.2631 506.371 88.8248 506.371 89.4811C506.371 90.1373 506.122 90.6991 505.625 91.1665C505.138 91.6338 504.551 91.8675 503.865 91.8675ZM521.349 119.072C519.281 119.072 517.466 118.58 515.905 117.595C514.354 116.611 513.141 115.234 512.266 113.464C511.401 111.694 510.968 109.626 510.968 107.259C510.968 104.873 511.401 102.79 512.266 101.01C513.141 99.2304 514.354 97.8483 515.905 96.8639C517.466 95.8795 519.281 95.3873 521.349 95.3873C523.417 95.3873 525.227 95.8795 526.778 96.8639C528.339 97.8483 529.552 99.2304 530.417 101.01C531.292 102.79 531.729 104.873 531.729 107.259C531.729 109.626 531.292 111.694 530.417 113.464C529.552 115.234 528.339 116.611 526.778 117.595C525.227 118.58 523.417 119.072 521.349 119.072ZM521.349 115.91C522.92 115.91 524.212 115.507 525.227 114.702C526.241 113.897 526.991 112.838 527.479 111.525C527.966 110.213 528.21 108.791 528.21 107.259C528.21 105.728 527.966 104.301 527.479 102.979C526.991 101.657 526.241 100.588 525.227 99.7723C524.212 98.9569 522.92 98.5493 521.349 98.5493C519.778 98.5493 518.485 98.9569 517.471 99.7723C516.457 100.588 515.706 101.657 515.219 102.979C514.732 104.301 514.488 105.728 514.488 107.259C514.488 108.791 514.732 110.213 515.219 111.525C515.706 112.838 516.457 113.897 517.471 114.702C518.485 115.507 519.778 115.91 521.349 115.91ZM540.622 104.813V118.595H537.102V95.6856H540.503V99.2652H540.801C541.338 98.1018 542.154 97.1672 543.247 96.4612C544.341 95.7453 545.753 95.3873 547.483 95.3873C549.034 95.3873 550.392 95.7055 551.555 96.3419C552.718 96.9683 553.623 97.9229 554.269 99.2055C554.916 100.478 555.239 102.089 555.239 104.038V118.595H551.719V104.277C551.719 102.477 551.252 101.075 550.317 100.071C549.382 99.0564 548.1 98.5493 546.469 98.5493C545.345 98.5493 544.341 98.7929 543.456 99.2801C542.581 99.7673 541.89 100.478 541.383 101.413C540.876 102.348 540.622 103.481 540.622 104.813Z" fill="#000"/><rect x=".805" y=".15" width="133.206" height="133.206" rx="20" fill="#5A80B1"/><path d="M37.1661 22.2114C36.4306 22.5792 33.8923 25.223 32.9638 26.5715C31.4576 28.7952 30.6698 30.8783 30.5121 33.0678C30.2849 36.3065 31.7911 39.9319 34.6621 42.9957L35.6951 44.1161L35.5031 46.8654C35.3976 48.3716 35.2579 49.5795 35.2056 49.5443C32.9638 48.2842 30.5472 47.5658 27.6411 47.3035C25.3291 47.0934 24.5061 47.2331 23.6489 47.9507C22.8259 48.6339 22.6682 49.3694 22.6853 52.399C22.6853 55.5503 23.053 57.372 24.1041 59.5777C24.9622 61.3814 27.0282 63.4302 28.8841 64.3407C30.5121 65.1465 32.8935 65.8469 34.452 65.9695C36.729 66.1615 36.6938 66.1443 37.0264 67.0719C37.2013 67.5271 37.6394 68.5429 38.0071 69.3308L38.6543 70.7667L38.0243 70.8721C35.3805 71.2922 32.9467 72.4126 30.5824 74.3037C28.8138 75.7397 27.5708 77.1927 27.3085 78.104C27.0282 79.1893 27.3608 79.9248 28.7435 81.3959C31.8786 84.6877 35.5905 86.5437 39.0221 86.5437C42.0345 86.5437 44.6603 85.3881 48.0928 82.5857L48.6526 82.1305L49.6684 82.8138C51.1395 83.8116 52.5403 84.5823 54.2213 85.3178L55.7095 85.9831L56.9354 84.6877C57.6178 83.9693 58.6517 83.0761 59.2295 82.6912C59.8947 82.2531 60.1922 81.9737 60.0344 81.9205C54.7469 80.1168 51.5595 78.2086 48.2325 74.8995C46.0611 72.7281 44.4331 70.4512 43.0847 67.72C40.3886 62.2566 39.8631 58.2644 40.6158 48.8962L41.0006 44.081L41.912 43.1183C46.3414 38.4085 47.3401 33.1029 44.6955 28.2345C43.8202 26.6237 43.0144 25.5556 41.491 23.98C39.5999 21.9834 38.5146 21.5462 37.1661 22.2114Z" fill="#fff"/><path d="M95.3379 22.2142C94.0074 22.9146 91.3285 25.9965 90.1198 28.2373C88.1764 31.8095 88.1764 35.6972 90.1198 39.2685C90.9076 40.7225 91.7657 41.9132 92.9041 43.1211L93.8145 44.0838L94.1995 48.899C94.953 58.2672 94.4275 62.2594 91.7305 67.7228C91.1527 68.8783 90.1549 70.5766 89.5068 71.4879C88.0186 73.589 85.2874 76.3202 83.1682 77.8436C81.3294 79.1398 77.9681 80.8731 76.077 81.4681C75.4118 81.6961 74.7808 81.9062 74.7114 81.9413C74.623 81.9936 75.0259 82.3442 75.6037 82.7111C76.1644 83.0789 77.1974 83.9721 77.8807 84.6905L79.1056 85.9859L80.7867 85.2332C82.6256 84.4102 83.6063 83.8676 85.1468 82.8337L86.1626 82.1333L86.7233 82.5885C90.1549 85.3909 92.7816 86.5465 95.7931 86.5465C99.2247 86.5465 102.938 84.6905 106.072 81.3987C107.525 79.8573 107.84 79.1046 107.455 78.0013C107.105 77.0035 106.229 75.9876 104.391 74.4643C102.009 72.4677 99.5231 71.295 96.7909 70.8749L96.1609 70.7695L96.809 69.3335C97.1767 68.5457 97.6139 67.5299 97.7897 67.0747C98.1223 66.1642 98.0691 66.1823 100.328 65.9723C102.605 65.7613 105.249 64.8861 106.93 63.8008C108.401 62.8372 110.012 61.0516 110.729 59.5282C111.762 57.3748 112.13 55.5359 112.13 52.4018C112.148 49.3722 111.99 48.6367 111.167 47.9534C110.326 47.2359 109.468 47.0962 107.244 47.3062C104.32 47.5685 101.816 48.3041 99.6105 49.5471C99.5582 49.5823 99.4176 48.3744 99.313 46.8682L99.1201 44.1189L100.153 42.9985C105.844 36.9222 105.687 30.2862 99.7331 24.0702C97.7365 22.0042 96.6512 21.531 95.3379 22.2142Z" fill="#fff"/><path d="M66.087 33.977C65.8075 34.169 65.4749 34.4142 65.3695 34.5548C65.2469 34.6945 64.249 37.076 63.1106 39.8775C61.9901 42.6619 61.0446 44.9731 61.0446 44.9731C61.0265 44.9911 58.5757 45.166 55.5812 45.376C49.4175 45.8141 49.1904 45.8664 48.5252 47.1617C48.0691 48.0198 48.0871 48.9482 48.5594 49.6838C48.7172 49.9289 50.6957 51.6623 52.9546 53.5706C55.2135 55.4617 57.0694 57.0725 57.0694 57.1599C57.0694 57.2302 56.4745 59.664 55.7561 62.5709C54.898 66.0377 54.4779 67.9991 54.5483 68.2966C54.898 69.7325 55.7561 70.4329 57.1569 70.4329C57.9627 70.4329 58.2782 70.2751 62.6382 67.5439C65.1594 65.9503 67.3128 64.655 67.4183 64.655C67.5057 64.655 69.6592 65.9503 72.1813 67.5439C76.5233 70.2751 76.8207 70.4329 77.6437 70.4329C79.0445 70.4329 79.9026 69.7325 80.2532 68.2966C80.3235 67.9991 79.9026 66.0206 79.0445 62.5358C78.3098 59.6288 77.7492 57.1779 77.7663 57.0905C77.8014 57.0031 79.6232 55.4265 81.8289 53.5706C84.0526 51.7146 85.996 49.9983 86.1889 49.7532C86.7144 49.0357 86.7495 48.0549 86.2763 47.1617C85.6111 45.8835 85.3308 45.7961 79.6926 45.3931C76.9785 45.2011 74.5276 45.0434 74.2473 45.0434C73.7398 45.0434 73.7217 44.9731 71.7603 40.0875C70.675 37.3735 69.642 34.9397 69.4672 34.6594C68.7668 33.6796 67.138 33.346 66.087 33.977Z" fill="#fff"/><path d="M65.1887 85.7514C62.6847 86.2941 60.3383 88.15 59.2702 90.4089C58.9376 91.1264 58.6221 92.0368 58.5518 92.4397L58.4292 93.1924H76.3948L76.2722 92.4397C76.2019 92.0368 75.8873 91.1264 75.5547 90.426C73.8214 86.7312 69.5307 84.8059 65.1887 85.7514Z" fill="#fff"/><path d="M56.156 98.838C55.0176 99.5032 54.8075 100.204 54.8075 103.495V106.332H53.3887C51.7428 106.332 50.973 106.612 50.3772 107.453C49.8346 108.205 49.8346 109.711 50.3772 110.464C51.2182 111.638 50.342 111.585 67.4144 111.585C84.4867 111.585 83.6115 111.638 84.4525 110.464C84.7319 110.061 84.8374 109.676 84.8374 108.959C84.8374 107.12 83.8044 106.332 81.44 106.332H80.0221V103.495C80.0221 100.186 79.8121 99.5032 78.6385 98.838C77.9562 98.4522 77.9381 98.4521 67.3972 98.4521C56.8564 98.4521 56.8212 98.4702 56.156 98.838Z" fill="#fff"/></svg>