<svg width="22" height="16" viewBox="0 0 22 16" fill="none" xmlns="http://www.w3.org/2000/svg"><path d="M20.2812 0C20.5176 0 20.7396 0.0454545 20.9473 0.136364C21.1549 0.227273 21.3376 0.359848 21.4951 0.534091C21.6527 0.708333 21.7744 0.901515 21.8604 1.11364C21.9463 1.32576 21.9928 1.56061 22 1.81818V14.1818C22 14.4318 21.957 14.6667 21.8711 14.8864C21.7852 15.1061 21.6598 15.2992 21.4951 15.4659C21.3304 15.6326 21.1478 15.7614 20.9473 15.8523C20.7467 15.9432 20.5247 15.9924 20.2812 16H1.71875C1.48242 16 1.26042 15.9545 1.05273 15.8636C0.845052 15.7727 0.662435 15.6402 0.504883 15.4659C0.347331 15.2917 0.225586 15.0985 0.139648 14.8864C0.0537109 14.6742 0.00716146 14.4394 0 14.1818V1.81818C0 1.56818 0.0429688 1.33333 0.128906 1.11364C0.214844 0.893939 0.340169 0.700758 0.504883 0.534091C0.669596 0.367424 0.852214 0.238636 1.05273 0.147727C1.25326 0.0568182 1.47526 0.00757576 1.71875 0H20.2812ZM1.71875 1.45455C1.61849 1.45455 1.53613 1.48864 1.47168 1.55682C1.40723 1.625 1.375 1.71212 1.375 1.81818V4.36364H20.625V1.81818C20.625 1.71212 20.5928 1.625 20.5283 1.55682C20.4639 1.48864 20.3815 1.45455 20.2812 1.45455H1.71875ZM20.2812 14.5455C20.3815 14.5455 20.4639 14.5114 20.5283 14.4432C20.5928 14.375 20.625 14.2879 20.625 14.1818V5.81818H1.375V14.1818C1.375 14.2879 1.40723 14.375 1.47168 14.4432C1.53613 14.5114 1.61849 14.5455 1.71875 14.5455H20.2812ZM15.125 10.1818H17.875V11.6364H15.125V10.1818Z" fill="#fff"/></svg>