<svg width="20" height="18" viewBox="0 0 20 18" fill="none" xmlns="http://www.w3.org/2000/svg"><path d="M7.72727 5.85L9.09091 7.2L6.36364 9.9L9.09091 12.6L7.72727 13.95L3.63636 9.9L7.72727 5.85ZM12.2727 13.95L10.9091 12.6L13.6364 9.9L10.9091 7.2L12.2727 5.85L16.3636 9.9L12.2727 13.95ZM18.1818 0H1.81818C1.33597 0 0.873508 0.189642 0.532533 0.527208C0.191558 0.864773 0 1.32261 0 1.8V16.2C0 16.6774 0.191558 17.1352 0.532533 17.4728C0.873508 17.8104 1.33597 18 1.81818 18H18.1818C18.664 18 19.1265 17.8104 19.4675 17.4728C19.8084 17.1352 20 16.6774 20 16.2V1.8C20 1.32261 19.8084 0.864773 19.4675 0.527208C19.1265 0.189642 18.664 0 18.1818 0ZM18.1818 16.2H1.81818V3.6H18.1818V16.2Z" fill="#fff"/></svg>