<svg width="20" height="20" viewBox="0 0 20 20" fill="none" xmlns="http://www.w3.org/2000/svg"><path d="M10 0C15.523 0 20 4.477 20 10C20 15.523 15.523 20 10 20C4.477 20 0 15.523 0 10C0 4.477 4.477 0 10 0ZM11.683 13.95C10.562 14.0164 9.43802 14.0164 8.317 13.95C8.453 14.736 8.626 15.444 8.827 16.048C9.079 16.804 9.357 17.344 9.617 17.674C9.705 17.784 9.84 18 10.002 18C10.147 17.987 10.304 17.773 10.382 17.674C10.642 17.344 10.921 16.804 11.172 16.048C11.3944 15.3625 11.5659 14.6611 11.683 13.95ZM17.513 12.755C17.248 12.869 16.969 12.974 16.68 13.07C15.828 13.354 14.832 13.582 13.74 13.74C13.6032 14.7377 13.379 15.7215 13.07 16.68C12.974 16.97 12.869 17.248 12.755 17.513C13.8453 17.1117 14.8354 16.4784 15.6569 15.6569C16.4784 14.8354 17.1117 13.8453 17.513 12.755ZM2.487 12.755C2.88829 13.8453 3.52158 14.8354 4.34309 15.6569C5.1646 16.4784 6.15472 17.1117 7.245 17.513C7.12834 17.2399 7.02325 16.962 6.93 16.68C6.62098 15.7215 6.39679 14.7377 6.26 13.74C5.26227 13.6032 4.27848 13.379 3.32 13.07C3.03 12.974 2.752 12.869 2.487 12.755ZM8.072 8.072C7.97479 9.35549 7.97479 10.6445 8.072 11.928C9.354 12.025 10.646 12.025 11.928 11.928C12.0252 10.6445 12.0252 9.3555 11.928 8.072C10.6445 7.97478 9.35549 7.97478 8.072 8.072ZM13.95 8.317C14.0164 9.43802 14.0164 10.562 13.95 11.683C14.6611 11.5656 15.3624 11.3951 16.048 11.173C16.804 10.921 17.344 10.643 17.674 10.383C17.784 10.296 18 10.159 18 9.998C17.987 9.853 17.773 9.696 17.674 9.618C17.344 9.358 16.804 9.079 16.048 8.828C15.3624 8.60588 14.6611 8.4344 13.95 8.317ZM6.05 8.317C5.264 8.453 4.557 8.626 3.952 8.827C3.196 9.079 2.657 9.357 2.326 9.617C2.086 9.807 2.014 9.95 2.003 9.985C1.958 10.135 2.233 10.308 2.326 10.382C2.656 10.642 3.196 10.921 3.952 11.172C4.557 11.374 5.264 11.547 6.05 11.682C5.98357 10.5617 5.98357 9.43735 6.05 8.317ZM7.245 2.487C6.15475 2.88835 5.16466 3.52166 4.34316 4.34316C3.52166 5.16466 2.88835 6.15475 2.487 7.245C2.752 7.131 3.031 7.026 3.32 6.93C4.27848 6.62098 5.26227 6.39679 6.26 6.26C6.418 5.168 6.646 4.172 6.93 3.32C7.026 3.03 7.131 2.752 7.245 2.487ZM12.755 2.487C12.869 2.752 12.974 3.031 13.07 3.32C13.354 4.172 13.582 5.168 13.74 6.26C14.832 6.418 15.828 6.646 16.68 6.93C16.97 7.026 17.248 7.131 17.513 7.245C17.1117 6.15472 16.4784 5.1646 15.6569 4.34309C14.8354 3.52158 13.8453 2.88829 12.755 2.487ZM10 2C9.861 2 9.688 2.237 9.618 2.326C9.358 2.656 9.079 3.196 8.828 3.952C8.60587 4.63762 8.43539 5.33892 8.318 6.05C9.43835 5.98357 10.5617 5.98357 11.682 6.05C11.5646 5.33892 11.3941 4.63762 11.172 3.952C10.921 3.196 10.642 2.657 10.382 2.326C10.312 2.236 10.14 2 10 2Z" fill="#fff"/></svg>