<svg width="24" height="24" viewBox="0 0 24 24" fill="none" xmlns="http://www.w3.org/2000/svg"><g clip-path="url(#clip0_23_9)"><path d="M12 24C18.6274 24 24 18.6274 24 12C24 5.37258 18.6274 0 12 0C5.37258 0 0 5.37258 0 12C0 18.6274 5.37258 24 12 24Z" fill="#338AF3"/><path d="M18.7825 12.1304H5.21729C5.21729 13.0669 6.03296 13.826 6.96938 13.826H6.91294C6.91294 14.7625 7.67208 15.5217 8.6086 15.5217C8.6086 16.4582 9.36774 17.2173 10.3043 17.2173H13.6956C14.6321 17.2173 15.3912 16.4582 15.3912 15.5217C16.3277 15.5217 17.0869 14.7625 17.0869 13.826H17.0304C17.9668 13.826 18.7825 13.0669 18.7825 12.1304V12.1304Z" fill="#FFDA44"/><path d="M16.6955 9.91309C16.6955 12.5064 14.5932 14.6087 11.9999 14.6087C9.4065 14.6087 7.3042 12.5064 7.3042 9.91309" fill="#338AF3"/><path d="M15.5869 9.91311L14.1213 10.6025L14.9017 12.0219L13.3103 11.7174L13.1087 13.325L12.0002 12.1426L10.8917 13.325L10.6901 11.7174L9.0987 12.0218L9.87907 10.6025L8.41357 9.91311L9.87912 9.22377L9.0987 7.80444L10.6901 8.10885L10.8918 6.50122L12.0002 7.68364L13.1087 6.50122L13.3103 8.10885L14.9018 7.80444L14.1214 9.22381L15.5869 9.91311Z" fill="#FFDA44"/></g><defs><clipPath id="clip0_23_9"><path fill="#fff" d="M0 0H24V24H0z"/></clipPath></defs></svg>