<svg xmlns="http://www.w3.org/2000/svg"><symbol id="icon-search" xmlns="http://www.w3.org/2000/svg" viewBox="0 0 24 24"><path fill="currentColor" fill-rule="evenodd" d="M14.4 15.4a6.8 6.8 0 1 1 1-1l5.2 5.1a.8.8 0 0 1-1 1.1l-5.2-5.2Zm-8-1.5a5.3 5.3 0 1 1 7.5 0c-2 2-5.4 2-7.4 0Z" clip-rule="evenodd"/></symbol><symbol id="icon-close" viewBox="0 0 24 24"><path stroke="currentColor" stroke-linecap="round" stroke-width="1.5" d="m8.5 15.5 7-7M8.5 8.5l7 7"/></symbol><symbol id="icon-star" viewBox="0 0 9 10"><path fill="currentColor" fill-rule="evenodd" d="M6 3.6c-.1 0-.2 0-.3-.2l-1-2.2a.3.3 0 0 0-.5 0l-1 2.2c0 .2 0 .2-.2.2L.7 4c-.3 0-.4.3-.2.5L2.3 6v.3L2 8.8c0 .3.2.5.4.3l2-1.2h.4l2 1.2c.2.2.5 0 .4-.3l-.4-2.3-1.2.8 1-1.1 2-1.8c.2-.2 0-.5-.2-.5L6 3.6Z" clip-rule="evenodd"/></symbol><symbol id="icon-angle-down" viewBox="0 0 24 24"><path fill="currentColor" fill-rule="evenodd" clip-rule="evenodd" d="M16.5303 8.96967C16.8232 9.26256 16.8232 9.73744 16.5303 10.0303L12.5303 14.0303C12.2374 14.3232 11.7626 14.3232 11.4697 14.0303L7.46967 10.0303C7.17678 9.73744 7.17678 9.26256 7.46967 8.96967C7.76256 8.67678 8.23744 8.67678 8.53033 8.96967L12 12.4393L15.4697 8.96967C15.7626 8.67678 16.2374 8.67678 16.5303 8.96967Z"/></symbol><symbol id="icon-linkedin" viewBox="0 0 20 20"><path fill="currentColor" d="M4 1.6A1.8 1.8 0 1 0 4 5a1.8 1.8 0 0 0 0-3.5Zm-1.7 5h-.1v11h3.4l.1-.1V6.6H2.2Zm5.4 0h-.1v10.9l.1.1H11l.1-.1v-5.8a1.6 1.6 0 0 1 3.2 0v5.9h3.4l.1-.1v-7.2c0-2-1.7-3.6-3.8-3.4a6 6 0 0 0-1.8.5l-1 .4V6.7l-.2-.1H7.7Z"/></symbol><symbol id="icon-facebook" viewBox="0 0 32 32"><path fill="currentColor" fill-rule="evenodd" d="M2.7 16c0 6.7 4.8 12.2 11 13.3v-9.6h-3.3V16h3.4v-3c0-3.3 2.1-5.2 5.2-5.2l3 .3v3.5h-1.8c-1.6 0-2 .8-2 1.8V16h3.6l-.6 3.7h-3v9.6A13.4 13.4 0 0 0 16 2.6C8.7 2.7 2.7 8.8 2.7 16.2Z" clip-rule="evenodd"/></symbol><symbol id="icon-telegram" viewBox="0 0 32 32"><path fill="currentColor" fill-rule="evenodd" d="m4.4 14.5 13.9-6c6.6-2.7 8-3.1 8.9-3.2.2 0 .6 0 .9.3.2.2.3.5.3.7v.9c-.3 3.7-1.8 12.9-2.6 17-.4 1.9-1 2.5-1.7 2.5-1.3.1-2.4-.9-3.7-1.8L15 21.4c-2.4-1.6-.9-2.4.5-3.8.3-.4 6.4-6 6.5-6.4v-.4c-.2-.2-.4-.1-.6 0-.2 0-3.5 2.2-10 6.5-1 .7-1.8 1-2.6 1a17 17 0 0 1-3.7-.9c-1.5-.5-2.6-.7-2.5-1.5 0-.5.6-1 1.7-1.4Z" clip-rule="evenodd"/></symbol><symbol id="icon-twitter" viewBox="0 0 32 32"><path fill="currentColor" d="M30.2 8c-1 .4-2.1.7-3.3.9a6 6 0 0 0 2.5-3.1 14 14 0 0 1-3.6 1.3 5.6 5.6 0 0 0-9.6 5.2 16 16 0 0 1-11.6-6A5.6 5.6 0 0 0 6.3 14c-.9 0-1.7-.3-2.5-.7a5.6 5.6 0 0 0 4.5 5.6c-.8.2-1.7.3-2.6.1a5.6 5.6 0 0 0 5.3 4 11.3 11.3 0 0 1-8.3 2.3A16 16 0 0 0 27.4 11c1-.9 2-1.9 2.8-3Z"/></symbol><symbol id="icon-vk" viewBox="0 0 32 32"><path fill="currentColor" d="M17.2 24C8 24 2.9 18 2.7 8h4.5c.2 7.3 3.5 10.4 6.2 11V8h4.3v6.3c2.6-.2 5.4-3.1 6.3-6.3h4.3c-.7 4-3.7 6.8-5.8 8a13 13 0 0 1 6.8 8h-4.7a8 8 0 0 0-6.9-5.7V24h-.5Z"/></symbol><symbol id="icon-ok" viewBox="0 0 32 32"><path fill="currentColor" fill-rule="evenodd" d="M9 10.2c0-2.5 1.7-4.8 4.2-5.7 2.6-1 5.6-.5 7.6 1.3s2.5 4.5 1.5 6.8a7 7 0 0 1-6.4 3.8c-3.8 0-7-2.8-7-6.2Zm6.9 2.6a3 3 0 0 0 2.6-1.6c.5-1 .2-2-.6-2.8a3 3 0 0 0-3.1-.6 2.6 2.6 0 0 0-1.8 2.4c0 1.4 1.3 2.6 2.9 2.6Z" clip-rule="evenodd"/><path fill="currentColor" d="M11.1 20.8a9 9 0 0 0 2.2.6l-.1.2-2.2 2v.1l-1.6 1.4c-.4.4-.6 1-.5 1.5 0 .5.4 1 1 1.2a2 2 0 0 0 2.2-.4 1155.2 1155.2 0 0 0 3.8-3.3l.7.5.3.3.9.8 2 1.8c.5.4 1.2.6 1.8.5.6-.2 1-.5 1.3-1 .3-.7.1-1.4-.4-2l-4-3.5-.1-.1 1.2-.3c1.1-.4 2.2-.8 3.2-1.4.7-.5 1-1.4.6-2a2 2 0 0 0-2.2-1c-.3 0-.5.2-.7.3h-.1a8.8 8.8 0 0 1-4.3 1.2c-1.9 0-3.6-.3-5.2-1.3-.4-.3-.9-.3-1.4-.2-.8.1-1.3.5-1.4 1.3-.2.7 0 1.3.7 1.7.7.5 1.5.8 2.3 1.1Z"/></symbol><symbol id="icon-youtube" viewBox="0 0 32 32"><path fill="currentColor" fill-rule="evenodd" clip-rule="evenodd" d="M8.3225 3.19995L10.2425 8.95995V12.8H11.5225V8.95995L13.4425 3.19995H12.1625L10.8825 7.03995L9.6025 3.19995H8.3225ZM15.3625 5.75995C14.68 5.75995 14.345 5.86745 13.9275 6.20995C13.5275 6.54745 13.4175 6.80745 13.4425 7.67995V10.88C13.4425 11.5175 13.5475 11.9375 13.9325 12.31C14.3325 12.6825 14.71 12.8 15.3625 12.8C16.045 12.8 16.4175 12.6825 16.8025 12.31C17.2025 11.9525 17.2825 11.5175 17.2825 10.88V7.67995C17.2825 7.11495 17.1825 6.57995 16.795 6.22245C16.395 5.85495 15.9825 5.75995 15.3625 5.75995ZM18.5625 5.75995V11.52C18.5625 12.1425 19.19 12.8 19.8425 12.8C20.495 12.8 20.84 12.4725 21.1225 12.16V12.8H22.4025V5.75995H21.1225V10.88C21.115 11.3175 20.6 11.52 20.4825 11.52C20.35 11.52 19.8425 11.4925 19.8425 10.88V5.75995H18.5625ZM15.3625 7.03995C15.555 7.03995 16.0025 7.03745 16.0025 7.67995V10.88C16.0025 11.5 15.57 11.52 15.3625 11.52C15.17 11.52 14.7225 11.5125 14.7225 10.88V7.67995C14.7225 7.15745 15 7.03995 15.3625 7.03995ZM6.4025 14.08C4.1025 14.08 2.5625 15.605 2.5625 17.92V24C2.5625 26.315 4.1025 28.16 6.4025 28.16H25.6025C27.9025 28.16 29.4425 26.635 29.4425 24.32V17.92C29.4425 15.605 27.9025 14.08 25.6025 14.08H6.4025ZM7.6825 16.64H11.5225V17.92H10.2425V25.6H8.9625V17.92H7.6825V16.64ZM16.6425 16.64H17.9225V19.2C18.07 18.97 18.29 18.7875 18.5 18.685C18.705 18.58 18.9125 18.52 19.1225 18.52C19.5375 18.52 19.8625 18.67 20.085 18.95C20.3075 19.2325 20.4825 19.6075 20.4825 20.16V24C20.4825 24.475 20.3225 24.77 20.1125 25.0225C19.9075 25.275 19.6 25.595 19.2025 25.6C18.53 25.6075 18.17 25.2475 17.9225 24.96V25.6H16.6425V16.64ZM11.5225 18.56H12.8025V23.68C12.8025 23.8275 12.975 24.325 13.4425 24.32C13.9625 24.315 13.9675 23.83 14.0825 23.68V18.56H15.3625V25.6H14.0825V24.96C13.845 25.24 13.7225 25.3275 13.455 25.46C13.19 25.61 12.92 25.6 12.67 25.6C12.36 25.6 12.0075 25.32 11.8425 25.11C11.695 24.9175 11.5225 24.72 11.5225 24.32V18.56ZM23.17 18.56C23.7775 18.56 24.205 18.69 24.5275 19.03C24.8575 19.37 24.9625 19.7675 24.9625 20.4075V22.4H22.4025V23.39C22.4025 23.7475 22.45 23.975 22.5425 24.11C22.63 24.2575 22.8075 24.3225 23.0425 24.32C23.3025 24.3175 23.4675 24.265 23.555 24.1475C23.645 24.0425 23.6825 23.745 23.6825 23.36V23.04H24.9625V23.42C24.9625 24.1175 24.9075 24.6375 24.5625 24.9775C24.2375 25.335 23.73 25.5 23.065 25.5C22.4575 25.5 21.9825 25.32 21.6425 24.95C21.3025 24.58 21.125 24.0725 21.125 23.42V20.4075C21.125 19.8275 21.3275 19.3975 21.7 19.015C22 18.7075 22.5625 18.56 23.17 18.56ZM18.5625 19.52C18.21 19.52 17.9275 19.8375 17.9225 20.16V24C17.9275 24.185 18.21 24.32 18.5625 24.32C18.915 24.32 19.2025 24.0475 19.2025 23.695V20.48C19.2025 19.84 18.915 19.52 18.5625 19.52ZM23.0425 19.84C22.69 19.84 22.4075 20.1375 22.4025 20.48V21.12H23.6825V20.48C23.6825 20.0875 23.395 19.84 23.0425 19.84Z"/></symbol><symbol id="icon-instagram" viewBox="0 0 32 32"><path fill="currentColor" d="M16.3877 4C4.89895 4 4 4.89957 4 16.3877V16.6123C4 28.1004 4.89895 29 16.3877 29H16.6123C28.1011 29 29 28.1004 29 16.6123V16.5C29 4.9075 28.0925 4 16.5 4H16.3877ZM23.9963 7.75C24.687 7.74812 25.2481 8.30571 25.25 8.99634C25.2519 9.68696 24.6943 10.2481 24.0037 10.25C23.313 10.2519 22.7519 9.69429 22.75 9.00366C22.7481 8.31304 23.3057 7.75188 23.9963 7.75ZM16.4854 10.25C19.9366 10.2419 22.7419 13.0341 22.75 16.4854C22.7581 19.9366 19.9659 22.7419 16.5146 22.75C13.0634 22.7581 10.2581 19.9659 10.25 16.5146C10.2419 13.0634 13.0341 10.2581 16.4854 10.25ZM16.4915 12.75C14.4202 12.755 12.745 14.4385 12.75 16.5098C12.755 18.5804 14.4379 20.255 16.5085 20.25C18.5798 20.245 20.255 18.5621 20.25 16.4915C20.245 14.4202 18.5621 12.745 16.4915 12.75Z"/></symbol><symbol id="icon-google" viewBox="0 0 32 32"><path fill="currentColor" d="M28.7439 13.5375C28.9097 14.4166 29 15.3357 29 16.2948C29 23.7969 23.9275 29.1314 16.2662 29.1314C14.5239 29.1319 12.7986 28.7926 11.1888 28.1329C9.57903 27.4731 8.11637 26.5059 6.88438 25.2864C5.6524 24.067 4.67524 22.6192 4.00874 21.0258C3.34225 19.4324 2.99947 17.7246 3 16C2.99947 14.2754 3.34225 12.5676 4.00874 10.9742C4.67524 9.38083 5.6524 7.93303 6.88438 6.71356C8.11637 5.4941 9.57903 4.52687 11.1888 3.86715C12.7986 3.20742 14.5239 2.86813 16.2662 2.86865C19.8482 2.86865 22.8413 4.17325 25.1377 6.29156L21.398 9.99325V9.98391C20.0059 8.67131 18.2391 7.99767 16.2662 7.99767C11.889 7.99767 8.33126 11.658 8.33126 15.992C8.33126 20.3247 11.889 23.993 16.2662 23.993C20.2376 23.993 22.941 21.7453 23.4962 18.6586H16.2662V13.5375H28.7453H28.7439Z"/></symbol></svg>