<svg width="90" height="90" viewBox="0 0 90 90" fill="none" xmlns="http://www.w3.org/2000/svg"><path d="M61.23 11.9501L36.0233 9.28349C24.0004 8.01157 13.2228 16.727 11.9509 28.7499L9.28423 53.9565C8.01231 65.9794 16.7277 76.757 28.7506 78.029L53.9573 80.6956C65.9802 81.9675 76.7578 73.2521 78.0297 61.2292L80.6964 36.0226C81.9683 23.9997 73.2529 13.2221 61.23 11.9501Z" fill="#2B606A"/><mask id="mask0_425_5167" style="mask-type:luminance" maskUnits="userSpaceOnUse" x="22" y="23" width="45" height="44"><path d="M66.4255 27.5429L27.2461 23.0986L22.8018 62.2781L61.9812 66.7224L66.4255 27.5429Z" fill="#fff"/></mask><g mask="url(#mask0_425_5167)" fill="#fff"><path d="M28.0891 37.5293L26.5001 51.5374C26.1933 54.2422 28.1372 56.6836 30.842 56.9904L55.3291 59.7681C58.0339 60.0749 60.4753 58.131 60.7821 55.4262L62.3711 41.4181L46.7795 48.7336C45.0955 49.5237 43.1102 49.2985 41.646 48.1513L28.0891 37.5293Z"/><path d="M62.6971 38.5426L62.7263 38.285C63.0331 35.5802 61.0892 33.1388 58.3844 32.832L33.8972 30.0543C31.1925 29.7475 28.7511 31.6914 28.4443 34.3962L28.415 34.6539L43.1657 46.2112C43.8978 46.7848 44.8905 46.8974 45.7325 46.5024L62.6971 38.5426Z"/></g><path d="M62.8603 41.5448C66.36 41.5448 69.1971 38.7077 69.1971 35.2079C69.1971 31.7082 66.36 28.8711 62.8603 28.8711C59.3605 28.8711 56.5234 31.7082 56.5234 35.2079C56.5234 38.7077 59.3605 41.5448 62.8603 41.5448Z" fill="#2DB155" stroke="#2B606A" stroke-width="2.304"/></svg>